<?xml version="1.0" encoding="utf-8"?>
<!-- Generator: Adobe Illustrator 20.1.0, SVG Export Plug-In . SVG Version: 6.00 Build 0)  -->
<svg version="1.1" id="Layer_1" xmlns="http://www.w3.org/2000/svg" xmlns:xlink="http://www.w3.org/1999/xlink" x="0px" y="0px"
	 viewBox="0 0 313.2 186.1" style="enable-background:new 0 0 313.2 186.1;" xml:space="preserve">
<path d="M277.6,65c14.9-5.1,24.6-17.6,24.6-31.3c0-20.9-20.7-33.7-48.4-33.7l-61.4,0.2c-4-0.1-7.8-0.2-11.1-0.2
	c-33.2,0-52.7,16.9-52.7,37.6c0,20.9,14.9,37.1,35.6,44.5c-19,12.5-66,75.6-115.1,93.2c-17.6,6.3-37.8,1.9-49.1-3.1
	c1.7,4.3,19.3,14,37.8,14c63.3,0,119.9-89.1,147.1-100.6h19.6v-5.8h-33.3c-14.9-6.3-26.7-19-26.7-36.6c0-19.3,14.4-37.6,43.6-37.6
	c5.3,0,9,0.1,11.7,0.7c3.9,2.1,5.3,5.7,5.3,11.6v117c0,9.6-3.9,13-15.6,14.2c-1.2,0.2-1.7,0.2-2.6,0.2l-0.2,3.1l3.4-0.2
	c8.4-0.7,14.2-1.2,18.8-1.2c0,0,32.3,0.5,45.5,0.5c43.3,0,59-23.4,59-45.7C313.2,86.7,300.2,72,277.6,65z M221.5,5.8
	c0,0,13-1,18.3-1c33.5,0,45.7,11.1,45.7,31.1c0,11.8-8.2,25.8-31.8,25.8h-32.3V5.8z M252.3,145.4c-26.7,0-30.8-1.4-30.8-29.4V67.4
	H252c27.4,0,42.1,17.1,42.1,38.8C294.2,127.6,277.1,145.4,252.3,145.4z"/>
</svg>
